<svg width="256" height="256" viewBox="0 0 256 256" fill="none" xmlns="http://www.w3.org/2000/svg">
<mask id="mask0_405_40" style="mask-type:alpha" maskUnits="userSpaceOnUse" x="0" y="0" width="256" height="256">
<rect width="256" height="256" fill="white"/>
</mask>
<g mask="url(#mask0_405_40)">
<rect width="256" height="256" fill="url(#paint0_linear_405_40)"/>
<path fill-rule="evenodd" clip-rule="evenodd" d="M83 186L171.055 293.749L281.685 203.34L179.253 78L178.624 78.5144V186H83Z" fill="url(#paint1_linear_405_40)"/>
<path d="M128 168.758L121.46 153.55L105.644 146.554L121.46 139.71L128 125.262L134.54 139.71L150.356 146.554L134.54 153.55L128 168.758ZM82.375 188.833C79.9417 188.833 77.8125 187.921 75.9875 186.096C74.1625 184.271 73.25 182.142 73.25 179.708V85.4166C73.25 82.9833 74.1625 80.8541 75.9875 79.0291C77.8125 77.2041 79.9417 76.2916 82.375 76.2916H92.2604V67.1666H102.146V76.2916H153.854V67.1666H163.74V76.2916H173.625C176.058 76.2916 178.187 77.2041 180.012 79.0291C181.837 80.8541 182.75 82.9833 182.75 85.4166V179.708C182.75 182.142 181.837 184.271 180.012 186.096C178.187 187.921 176.058 188.833 173.625 188.833H82.375ZM82.375 179.708H173.625V114.312H82.375V179.708ZM82.375 105.187H173.625V85.4166H82.375V105.187ZM82.375 105.187V85.4166V105.187Z" fill="white"/>
</g>
<defs>
<linearGradient id="paint0_linear_405_40" x1="5.45988e-07" y1="7.5" x2="246.5" y2="244" gradientUnits="userSpaceOnUse">
<stop stop-color="#EF7CF1"/>
<stop offset="1" stop-color="#2C3FEC"/>
</linearGradient>
<linearGradient id="paint1_linear_405_40" x1="121.695" y1="140.581" x2="215.074" y2="188.863" gradientUnits="userSpaceOnUse">
<stop offset="0.00918794" stop-color="#6E54ED"/>
<stop offset="1" stop-color="#2C3FEC" stop-opacity="0"/>
</linearGradient>
</defs>
</svg>
